HIERARCHY
ROOT Hips
{
 OFFSET 0.000000 0.000000 0.000000
 CHANNELS 6 Xposition Yposition Zposition Yrotation Xrotation Zrotation
 JOINT Chest
 {
  OFFSET 0.000000 9.585900 0.002600
  CHANNELS 3 Yrotation Xrotation Zrotation
  JOINT Chest2
  {
   OFFSET 0.000000 9.601200 -0.005300
   CHANNELS 3 Yrotation Xrotation Zrotation
   JOINT Chest3
   {
    OFFSET 0.000000 9.561800 0.000000
    CHANNELS 3 Yrotation Xrotation Zrotation
    JOINT Chest4
    {
     OFFSET 0.000000 9.552100 0.000000
     CHANNELS 3 Yrotation Xrotation Zrotation
     JOINT Neck
     {
      OFFSET 0.000000 14.453000 0.000000
      CHANNELS 3 Yrotation Xrotation Zrotation
      JOINT Head
      {
       OFFSET 0.000000 8.936500 -0.011300
       CHANNELS 3 Yrotation Xrotation Zrotation
       End Site
       {
        OFFSET 0.000000 17.073600 -0.006000
       }
      }
     }
     JOINT RightCollar
     {
      OFFSET -2.921100 9.558500 0.000000
      CHANNELS 3 Yrotation Xrotation Zrotation
      JOINT RightShoulder
      {
       OFFSET -13.519700 0.000000 0.000000
       CHANNELS 3 Yrotation Xrotation Zrotation
       JOINT RightElbow
       {
        OFFSET 0.000000 -29.696600 0.000000
        CHANNELS 3 Yrotation Xrotation Zrotation
        JOINT RightWrist
        {
         OFFSET 0.000000 -24.004700 0.000000
         CHANNELS 3 Yrotation Xrotation Zrotation
         End Site
         {
          OFFSET 0.000000 -17.728500 0.000000
         }
        }
       }
      }
     }
     JOINT LeftCollar
     {
      OFFSET 2.921100 9.558500 0.000000
      CHANNELS 3 Yrotation Xrotation Zrotation
      JOINT LeftShoulder
      {
       OFFSET 13.519700 0.000000 0.000000
       CHANNELS 3 Yrotation Xrotation Zrotation
       JOINT LeftElbow
       {
        OFFSET 0.000000 -29.696600 0.000000
        CHANNELS 3 Yrotation Xrotation Zrotation
        JOINT LeftWrist
        {
         OFFSET 0.000000 -24.004700 0.000000
         CHANNELS 3 Yrotation Xrotation Zrotation
         End Site
         {
          OFFSET 0.000000 -17.728500 0.000000
         }
        }
       }
      }
     }
    }
   }
  }
 }
 JOINT RightHip
 {
  OFFSET -7.771700 -0.012900 -0.001300
  CHANNELS 3 Yrotation Xrotation Zrotation
  JOINT RightKnee
  {
   OFFSET 0.000000 -40.869800 0.001200
   CHANNELS 3 Yrotation Xrotation Zrotation
   JOINT RightAnkle
   {
    OFFSET 0.000000 -39.717900 0.002100
    CHANNELS 3 Yrotation Xrotation Zrotation
    JOINT RightToe
    {
     OFFSET 0.000000 -4.965400 11.033500
     CHANNELS 3 Yrotation Xrotation Zrotation
     End Site
     {
      OFFSET 0.000000 -1.423100 5.872300
     }
    }
   }
  }
 }
 JOINT LeftHip
 {
  OFFSET 7.771700 -0.012900 -0.001300
  CHANNELS 3 Yrotation Xrotation Zrotation
  JOINT LeftKnee
  {
   OFFSET 0.000000 -40.869800 0.001200
   CHANNELS 3 Yrotation Xrotation Zrotation
   JOINT LeftAnkle
   {
    OFFSET 0.000000 -39.717900 0.002100
    CHANNELS 3 Yrotation Xrotation Zrotation
    JOINT LeftToe
    {
     OFFSET 0.000000 -4.965400 11.033500
     CHANNELS 3 Yrotation Xrotation Zrotation
     End Site
     {
      OFFSET 0.000000 -1.423100 5.872300
     }
    }
   }
  }
 }
}
MOTION
Frames: 11
Frame Time: 0.008333
-0.963108 53.034639 35.447022 171.978020 -38.772869 -3.070861 3.276271 19.958539 1.809741 0.379405 2.500611 0.325355 0.630092 4.099008 0.542533 2.958674 17.044893 2.627683 1.838191 16.625932 0.180470 3.459412 -4.851240 -0.306487 -5.877801 -0.529762 -2.578720 -0.699588 -0.961898 4.857604 -173.706415 -84.515575 -169.443719 5.384466 10.843766 2.525875 -3.130882 0.080991 -0.246236 4.638512 -0.123286 2.614643 126.130292 -77.661053 -149.808670 -6.931973 2.906016 10.147244 -2.673802 -42.289515 3.553097 -179.650296 86.638141 -174.954678 -0.540033 -11.722639 -1.757767 0.060297 -0.065751 0.013274 -1.011434 -39.119779 5.962359 75.036918 82.728187 65.267037 -5.531626 -12.306293 9.118816 0.408177 1.586819 0.272307
-0.956061 52.981962 35.426697 172.063073 -38.665767 -3.022716 3.249828 19.889196 1.747958 0.378233 2.484157 0.324395 0.628294 4.073333 0.541058 2.959663 16.997314 2.628715 1.866469 16.723635 0.212785 3.442128 -4.698872 -0.256438 -5.878982 -0.525131 -2.578106 -0.701934 -0.948074 4.860706 -174.345917 -84.559950 -168.760679 5.527419 11.112580 3.038017 -3.119668 0.117681 -0.217672 4.651716 -0.088435 2.586971 125.996348 -77.655772 -149.800719 -7.102601 3.553112 9.080900 -2.727098 -42.407904 3.467630 -179.543643 86.563746 -174.883390 -0.539818 -11.777581 -1.767301 0.060114 -0.095406 0.020173 -0.963494 -39.230950 5.843300 75.110239 82.748239 65.348918 -5.582181 -12.380097 9.134532 0.437604 1.660843 0.267214
-0.951455 52.933243 35.409051 172.134857 -38.573206 -2.949447 3.230251 19.836197 1.669257 0.377603 2.468393 0.323408 0.627355 4.048738 0.539605 2.964086 16.951174 2.629849 1.888941 16.806907 0.240548 3.414229 -4.568850 -0.207175 -5.924397 -0.498305 -2.572918 -0.668590 -0.954705 4.857159 -174.864555 -84.582486 -168.199141 5.667901 11.400605 3.638726 -3.112643 0.153859 -0.187427 4.674503 -0.061128 2.559629 126.097803 -77.650006 -150.062256 -7.297096 4.207114 7.955123 -2.775785 -42.513971 3.364899 -179.506715 86.490222 -174.891643 -0.536015 -11.835116 -1.780107 0.071705 -0.100762 0.016737 -0.897433 -39.320907 5.723813 75.301237 82.733524 65.489611 -5.610061 -12.442516 9.201649 0.405488 1.713261 0.226470
-0.949169 52.884317 35.398760 172.230770 -38.456579 -2.884824 3.188439 19.763025 1.583852 0.377181 2.453698 0.322527 0.626774 4.025861 0.538306 2.969482 16.907937 2.631246 1.883896 16.866531 0.261146 3.396792 -4.458797 -0.165754 -5.895988 -0.505383 -2.570345 -0.707611 -0.925981 4.848576 -175.287031 -84.585486 -167.739233 5.818182 11.706833 4.331946 -3.154516 0.189869 -0.168641 4.746546 -0.044311 2.544370 126.449743 -77.652848 -150.533943 -7.517276 4.850246 6.729738 -2.854556 -42.645788 3.254991 -179.518124 86.419635 -174.951873 -0.521368 -11.889522 -1.796980 0.080517 -0.102525 0.009201 -0.851512 -39.431829 5.599466 75.381747 82.734072 65.532782 -5.681191 -12.535747 9.214590 0.409994 1.803610 0.253574
-0.939188 52.841467 35.389447 172.289946 -38.376872 -2.851038 3.195253 19.723571 1.558077 0.377113 2.440811 0.321876 0.626759 4.005758 0.537284 2.976273 16.869553 2.633410 1.873423 16.909109 0.277644 3.361386 -4.393340 -0.133945 -5.859873 -0.512947 -2.568675 -0.746804 -0.903613 4.834439 -175.430532 -84.588623 -167.625753 6.020688 12.009730 5.179148 -3.196821 0.216177 -0.153039 4.813676 -0.032372 2.532495 127.048203 -77.664677 -151.232167 -7.765169 5.490716 5.450437 -2.955099 -42.729633 3.217473 -179.458034 86.370487 -174.931693 -0.510084 -11.938887 -1.806103 0.081576 -0.107982 -0.002063 -0.822341 -39.506861 5.543960 75.336963 82.761856 65.475243 -5.747280 -12.599535 9.227128 0.443854 1.870564 0.269739
-0.929969 52.802530 35.381649 172.331072 -38.316110 -2.814787 3.214387 19.703207 1.540118 0.377553 2.429675 0.321315 0.591369 3.982628 0.526117 3.024200 16.841375 2.644466 1.859170 16.934717 0.290020 3.304629 -4.376225 -0.113231 -5.841780 -0.513223 -2.568245 -0.760077 -0.897248 4.814776 -175.900193 -84.553013 -167.116991 6.185581 12.346843 6.046371 -3.193067 0.228433 -0.135077 4.829430 -0.021733 2.517608 127.885153 -77.686714 -152.146753 -8.044034 6.143638 4.117885 -3.046092 -42.796171 3.185081 -179.521057 86.327107 -175.032381 -0.485800 -11.974173 -1.837042 0.075589 -0.112912 -0.003851 -0.791833 -39.563313 5.495322 75.311026 82.781783 65.434176 -5.794073 -12.649074 9.238953 0.462544 1.920484 0.279531
-0.933896 52.762764 35.378595 172.374515 -38.231489 -2.720388 3.200813 19.664439 1.453457 0.378536 2.420030 0.320853 0.612323 3.969395 0.530517 3.016343 16.809719 2.643169 1.841913 16.944423 0.298239 3.280387 -4.323493 -0.082932 -5.822352 -0.516160 -2.567029 -0.773991 -0.897441 4.787156 -176.375047 -84.508058 -166.604682 6.371166 12.689749 7.013103 -3.188179 0.236186 -0.128040 4.839271 -0.021106 2.512487 128.942438 -77.713603 -153.260398 -8.354728 6.832376 2.719257 -3.081314 -42.903090 3.065079 -179.874593 86.271736 -175.431991 -0.478464 -12.011306 -1.850970 0.070236 -0.115627 -0.008752 -0.725168 -39.643501 5.366136 75.442803 82.730425 65.490474 -5.785071 -12.667733 9.314334 0.393311 1.931578 0.226040
-0.928845 52.725836 35.380098 172.408737 -38.149738 -2.691750 3.183584 19.606050 1.418237 0.408531 2.431007 0.332361 0.631441 3.960212 0.534883 2.971807 16.782726 2.631372 1.860914 16.939456 0.300123 3.268045 -4.324124 -0.064857 -5.813455 -0.518596 -2.565664 -0.742116 -0.911887 4.753803 -176.732283 -84.471229 -166.226201 6.606652 13.025333 8.092494 -3.079645 0.256129 -0.129421 4.782859 -0.045568 2.513376 130.180277 -77.740204 -154.539249 -8.697413 7.572163 1.241575 -3.168415 -42.994364 3.028349 179.955932 86.240410 -175.621149 -0.447192 -12.032129 -1.888922 0.066380 -0.118655 -0.012290 -0.700889 -39.718017 5.347002 75.341295 82.750263 65.353955 -5.834485 -12.713513 9.307282 0.410997 1.982875 0.260244
-0.919651 52.693181 35.382999 172.450705 -38.085023 -2.705863 3.218706 19.589245 1.459150 0.365557 2.399334 0.312240 0.663602 3.964174 0.546009 2.946179 16.759916 2.620464 1.876373 16.926907 0.300215 3.228841 -4.353323 -0.053575 -5.805889 -0.521631 -2.561569 -0.710139 -0.932170 4.716343 -177.103822 -84.436631 -165.828354 6.877151 13.362023 9.247798 -3.025397 0.279728 -0.138366 4.785130 -0.082301 2.525489 131.528059 -77.766360 -155.922384 -9.074559 8.366252 -0.336594 -3.290006 -43.059320 3.045495 179.885658 86.223495 -175.710414 -0.407131 -12.040503 -1.935597 0.055799 -0.125448 -0.008596 -0.710800 -39.762571 5.428070 75.035998 82.839604 65.020313 -6.053832 -12.790080 9.298390 0.611632 2.083464 0.326979
-0.918825 52.662856 35.386890 172.483000 -38.022947 -2.673487 3.244845 19.574314 1.459724 0.367180 2.392260 0.310721 0.620771 3.936787 0.526722 2.991731 16.746979 2.628004 1.827888 16.918101 0.302670 3.213152 -4.407891 -0.058509 -5.706043 -0.543997 -2.561379 -0.824633 -0.925099 4.689428 -177.553553 -84.399249 -165.329187 7.183980 13.709202 10.457788 -3.066736 0.288725 -0.141413 4.858458 -0.112256 2.536614 132.898354 -77.790416 -157.331037 -9.493602 9.221937 -2.022514 -3.341388 -43.128263 2.978389 -179.926650 86.198021 -175.520943 -0.351382 -12.059042 -1.972886 0.066463 -0.121682 -0.021399 -0.689453 -39.814253 5.414306 74.903214 82.853478 64.837247 -6.123990 -12.805868 9.318886 0.642382 2.112113 0.343176
-0.927099 52.632536 35.394312 172.545012 -37.939674 -2.611799 3.213593 19.531169 1.394697 0.383851 2.396096 0.316746 0.579153 3.909870 0.509364 3.036218 16.740577 2.632769 1.814853 16.890631 0.297629 3.161619 -4.465534 -0.048668 -5.655700 -0.569077 -2.556338 -0.929971 -0.908851 4.680015 -178.165723 -84.352859 -164.621120 7.522553 14.075911 11.687710 -3.111077 0.291094 -0.143409 4.944811 -0.146505 2.548216 134.233028 -77.807363 -158.705183 -9.960633 10.150928 -3.808285 -3.328589 -43.228659 2.844068 -179.931135 86.165332 -175.527340 -0.347495 -12.086154 -1.960244 0.074539 -0.117244 -0.032449 -0.650353 -39.884857 5.342037 74.718227 82.843000 64.570295 -6.183412 -12.792168 9.381033 0.636601 2.123638 0.340684
